<svg id="Layer_1" data-name="Layer 1" xmlns="http://www.w3.org/2000/svg" viewBox="0 0 16 16.01"><defs><style>.cls-1{fill:#fff;opacity:0;}.cls-2{fill:#f9a31a;}.cls-3{fill:#bf7a2a;}</style></defs><title>favicon</title><rect class="cls-1" width="16" height="16"/><g id="sun"><path class="cls-2" d="M8,2.12a6,6,0,1,0,6,6A6,6,0,0,0,8,2.12ZM3.66,6a.38.38,0,0,1-.34-.2h0a.39.39,0,0,1,.34-.59H5.88a.38.38,0,0,1,.34.2h0A.39.39,0,0,1,5.88,6Zm.61,1.45a.4.4,0,0,1,.34-.6H6.83a.4.4,0,0,1,.34.2.39.39,0,0,1-.34.59H4.61A.39.39,0,0,1,4.27,7.49Zm7.44,0-2,3.29a.4.4,0,0,1-.34.19H6.51a.43.43,0,0,1-.35-.2.4.4,0,0,1,.35-.59H8.84A.43.43,0,0,0,9.18,10l1.76-2.91a.4.4,0,0,1,.34-.19h.09A.4.4,0,0,1,11.71,7.49Zm1-1.64h0a.39.39,0,0,1-.34.19H10.8a.39.39,0,0,0-.33.19L8.7,9.14a.43.43,0,0,1-.34.19H5.56a.4.4,0,0,1-.34-.2.39.39,0,0,1,.34-.6H7.83a.42.42,0,0,0,.34-.19l1.76-2.9a.4.4,0,0,1,.34-.19h2.1A.4.4,0,0,1,12.71,5.85Z"/><path class="cls-2" d="M8.06,1.88a.31.31,0,0,0,.31-.31v-1a.31.31,0,1,0-.62,0V1.57A.31.31,0,0,0,8.06,1.88Z"/><path class="cls-2" d="M12.9,3.73,13.64,3a.31.31,0,0,0,0-.44.33.33,0,0,0-.45,0l-.73.74a.3.3,0,0,0,0,.44A.31.31,0,0,0,12.9,3.73Z"/><path class="cls-2" d="M15.61,7.83h-1a.32.32,0,0,0,0,.63h1a.32.32,0,1,0,0-.63Z"/><path class="cls-2" d="M12.85,12.54a.31.31,0,1,0-.44.44l.74.74a.31.31,0,1,0,.44-.44Z"/><path class="cls-2" d="M8,14.34a.31.31,0,0,0-.31.31v1a.31.31,0,1,0,.62,0v-1A.31.31,0,0,0,8,14.34Z"/><path class="cls-2" d="M3.15,12.49l-.73.74a.3.3,0,0,0,0,.44.31.31,0,0,0,.44,0l.74-.74a.31.31,0,0,0,0-.44A.33.33,0,0,0,3.15,12.49Z"/><path class="cls-2" d="M1.48,7.76h-1a.32.32,0,0,0,0,.63h1a.32.32,0,1,0,0-.63Z"/><path class="cls-2" d="M3.2,3.68a.33.33,0,0,0,.45,0,.31.31,0,0,0,0-.44L2.91,2.5a.33.33,0,0,0-.45,0h0a.31.31,0,0,0,0,.44Z"/><path class="cls-3" d="M11.37,6.89h-.09a.4.4,0,0,0-.34.19L9.18,10a.43.43,0,0,1-.34.19H6.51a.4.4,0,0,0-.35.59.43.43,0,0,0,.35.2H9.37a.4.4,0,0,0,.34-.19l2-3.29A.4.4,0,0,0,11.37,6.89Z"/><path class="cls-3" d="M6.22,5.45h0a.38.38,0,0,0-.34-.2H3.66a.39.39,0,0,0-.34.59h0a.38.38,0,0,0,.34.2H5.88A.39.39,0,0,0,6.22,5.45Z"/><path class="cls-3" d="M7.17,7.09a.4.4,0,0,0-.34-.2H4.61a.4.4,0,0,0-.34.6.39.39,0,0,0,.34.19H6.83A.39.39,0,0,0,7.17,7.09Z"/><path class="cls-3" d="M9.93,5.44,8.17,8.34a.42.42,0,0,1-.34.19H5.56a.39.39,0,0,0-.34.6.4.4,0,0,0,.34.2h2.8a.43.43,0,0,0,.34-.19l1.77-2.91A.39.39,0,0,1,10.8,6h1.57a.39.39,0,0,0,.34-.19h0a.4.4,0,0,0-.34-.6h-2.1A.4.4,0,0,0,9.93,5.44Z"/></g></svg>