<svg id="Layer_1" data-name="Layer 1" xmlns="http://www.w3.org/2000/svg" viewBox="0 0 200 42"><defs><style>.cls-1,.cls-5{fill:#fff;}.cls-1{opacity:0;}.cls-2{fill:#f9a31a;}.cls-3{fill:#bf7a2a;}.cls-4{fill:#444445;}</style></defs><title>logo-default-200x42</title><rect class="cls-1" width="200" height="42"/><g id="sun"><path class="cls-2" d="M36,5.75A13.36,13.36,0,1,0,49.38,19.11,13.36,13.36,0,0,0,36,5.75ZM26.3,14.5a.88.88,0,0,1-.76-.44h0a.88.88,0,0,1,.76-1.33h4.94a.87.87,0,0,1,.76.45h0a.88.88,0,0,1-.76,1.32Zm1.35,3.22a.88.88,0,0,1,.77-1.32h4.93a.88.88,0,1,1,0,1.76H28.42A.89.89,0,0,1,27.65,17.72Zm16.58,0-4.46,7.32a.88.88,0,0,1-.75.42H32.64a.89.89,0,0,1-.76-.44.88.88,0,0,1,.76-1.32h5.19a.88.88,0,0,0,.76-.43l3.94-6.47a.89.89,0,0,1,.76-.42h.19A.88.88,0,0,1,44.23,17.74Zm2.23-3.66h0a.88.88,0,0,1-.75.42H42.22a.88.88,0,0,0-.76.43L37.52,21.4a.89.89,0,0,1-.76.42H30.53a.89.89,0,0,1-.77-.44.88.88,0,0,1,.77-1.32h5a.88.88,0,0,0,.76-.43l3.94-6.47a.89.89,0,0,1,.75-.43h4.68A.89.89,0,0,1,46.46,14.08Z"/><path class="cls-2" d="M36.1,5.22a.7.7,0,0,0,.7-.7V2.2a.7.7,0,1,0-1.39,0V4.52A.69.69,0,0,0,36.1,5.22Z"/><path class="cls-2" d="M46.89,9.34,48.53,7.7a.7.7,0,0,0-1-1L45.9,8.36a.7.7,0,1,0,1,1Z"/><path class="cls-2" d="M52.94,18.49H50.61a.7.7,0,1,0,0,1.39h2.33a.7.7,0,1,0,0-1.39Z"/><path class="cls-2" d="M46.78,29a.7.7,0,1,0-1,1l1.65,1.65a.7.7,0,0,0,1-1Z"/><path class="cls-2" d="M36,33a.69.69,0,0,0-.7.69V36a.7.7,0,0,0,1.4,0V33.69A.7.7,0,0,0,36,33Z"/><path class="cls-2" d="M25.16,28.87l-1.64,1.65a.7.7,0,0,0,1,1l1.64-1.65a.7.7,0,0,0-1-1Z"/><path class="cls-2" d="M21.44,18.33H19.12a.7.7,0,0,0,0,1.4h2.32a.7.7,0,1,0,0-1.4Z"/><path class="cls-2" d="M25.27,9.23a.7.7,0,0,0,1-1L24.62,6.6a.71.71,0,0,0-1,0h0a.71.71,0,0,0,0,1Z"/><path class="cls-3" d="M43.48,16.4h-.19a.89.89,0,0,0-.76.42l-3.94,6.47a.88.88,0,0,1-.76.43H32.64A.88.88,0,0,0,31.88,25a.89.89,0,0,0,.76.44H39a.88.88,0,0,0,.75-.42l4.46-7.32A.88.88,0,0,0,43.48,16.4Z"/><path class="cls-3" d="M32,13.18h0a.87.87,0,0,0-.76-.45H26.3a.88.88,0,0,0-.76,1.33h0a.88.88,0,0,0,.76.44h4.94A.88.88,0,0,0,32,13.18Z"/><path class="cls-3" d="M34.12,16.84a.87.87,0,0,0-.77-.44H28.42a.88.88,0,0,0-.77,1.32.89.89,0,0,0,.77.44h4.93A.88.88,0,0,0,34.12,16.84Z"/><path class="cls-3" d="M40.28,13.16l-3.94,6.47a.88.88,0,0,1-.76.43h-5a.88.88,0,0,0-.77,1.32.89.89,0,0,0,.77.44h6.23a.89.89,0,0,0,.76-.42l3.94-6.47a.88.88,0,0,1,.76-.43h3.49a.88.88,0,0,0,.75-.42h0a.89.89,0,0,0-.75-1.35H41A.89.89,0,0,0,40.28,13.16Z"/></g><g id="bottom"><rect class="cls-4" x="117.04" y="29.6" width="61.87" height="11.9" rx="1"/><path class="cls-5" d="M118.56,38V31.91h3.52v.52h-2.89V34.6h2.73v.52h-2.73v2.36h3V38Z"/><path class="cls-5" d="M123.71,38V31.91h.63v5.57h2.84V38Z"/><path class="cls-5" d="M128.3,38V31.91h3.52v.52h-2.89V34.6h2.73v.52h-2.73v2.36h3V38Z"/><path class="cls-5" d="M136,38.09a3.29,3.29,0,0,1-1.18-.21,2.79,2.79,0,0,1-.93-.59,2.63,2.63,0,0,1-.63-1A3.49,3.49,0,0,1,133,35a3.58,3.58,0,0,1,.38-1.7,2.67,2.67,0,0,1,1-1.13,3,3,0,0,1,1.54-.4,2.72,2.72,0,0,1,1.84.61l-.25.41a2.52,2.52,0,0,0-1.55-.5,2.28,2.28,0,0,0-1.25.34,2.2,2.2,0,0,0-.82,1,3.17,3.17,0,0,0-.29,1.41,2.59,2.59,0,0,0,.64,1.85,2.2,2.2,0,0,0,1.69.69,3,3,0,0,0,1.76-.56l.21.47A3.39,3.39,0,0,1,136,38.09Z"/><path class="cls-5" d="M140.51,38V32.43h-2v-.52h4.61v.52h-2V38Z"/><path class="cls-5" d="M144.15,38V31.91H146a3.68,3.68,0,0,1,.87.08,1.76,1.76,0,0,1,.64.26,1.12,1.12,0,0,1,.41.5,1.91,1.91,0,0,1,.14.76,1.6,1.6,0,0,1-.31,1,1.35,1.35,0,0,1-.91.48,1.85,1.85,0,0,1,.31.11,1.34,1.34,0,0,1,.23.16.92.92,0,0,1,.18.23l.14.29c0,.1.09.22.15.39l.68,1.82h-.64l-.64-1.75c-.05-.15-.09-.27-.13-.36s-.09-.17-.14-.26a1,1,0,0,0-.15-.19l-.18-.12-.24-.07h-1.67V38Zm.62-3.28h1.31a1.53,1.53,0,0,0,1-.29,1.09,1.09,0,0,0,.34-.89,1.32,1.32,0,0,0-.08-.52.71.71,0,0,0-.24-.34.88.88,0,0,0-.4-.19,2.4,2.4,0,0,0-.58-.06h-1.38Z"/><path class="cls-5" d="M152.41,38.09a2.78,2.78,0,0,1-2.12-.85,3.74,3.74,0,0,1,0-4.57,2.73,2.73,0,0,1,2.13-.87,2.8,2.8,0,0,1,1.52.4,2.54,2.54,0,0,1,1,1.1A3.65,3.65,0,0,1,155.3,35a3.24,3.24,0,0,1-.78,2.28A2.74,2.74,0,0,1,152.41,38.09Zm0-.52a2,2,0,0,0,1.64-.7A3.43,3.43,0,0,0,154,33a2,2,0,0,0-1.63-.72,2,2,0,0,0-1.64.72,2.9,2.9,0,0,0-.6,1.92,2.86,2.86,0,0,0,.6,1.91A2,2,0,0,0,152.41,37.57Z"/><path class="cls-5" d="M157.86,38V32.43h-2v-.52h4.61v.52h-2V38Z"/><path class="cls-5" d="M161.5,38V31.91H165v.52h-2.9V34.6h2.73v.52h-2.73v2.36h3V38Z"/><path class="cls-5" d="M169.18,38.09a3.22,3.22,0,0,1-1.18-.21,2.94,2.94,0,0,1-.94-.59,2.74,2.74,0,0,1-.62-1,3.49,3.49,0,0,1-.23-1.29,3.7,3.7,0,0,1,.38-1.7,2.67,2.67,0,0,1,1-1.13,3.06,3.06,0,0,1,1.55-.4,2.72,2.72,0,0,1,1.84.61l-.26.41a2.5,2.5,0,0,0-1.55-.5,2.2,2.2,0,0,0-2.07,1.3,3.32,3.32,0,0,0-.29,1.41,2.63,2.63,0,0,0,.64,1.85,2.22,2.22,0,0,0,1.7.69A3,3,0,0,0,171,37l.21.47A3.39,3.39,0,0,1,169.18,38.09Z"/><path class="cls-5" d="M172.57,38V31.91h.63v2.72h3.49V31.91h.62V38h-.63V35.14h-3.49V38Z"/><rect id="line" class="cls-4" x="57.08" y="35.43" width="56.87" height="0.24"/></g><path class="cls-4" d="M64.48,27.39,57.94,12.11c-.27-.64-.49-1.24-.66-1.78A5.27,5.27,0,0,1,57,9l-.85,0-.72.05V7.2h7.82V8.77a2.08,2.08,0,0,0-1.66.62q-.45.58.06,1.89c.46,1.09.9,2.17,1.33,3.23l1.33,3.29c.38.89.71,1.7,1,2.42s.57,1.44.84,2.14h.06l.66-1.92c.22-.68.46-1.37.71-2.07.36-1,.68-1.87,1-2.69s.56-1.57.83-2.27.5-1.35.71-2c.12-.38.27-.82.46-1.3A4.49,4.49,0,0,1,71.16,9L70,9c-.44,0-.79,0-1.06.05V7.2h6.22V8.77a2.61,2.61,0,0,0-1.78.69,6,6,0,0,0-1.3,2.28c-.23.59-.46,1.2-.68,1.81l-.72,2c-.25.69-.52,1.43-.83,2.23s-.63,1.67-1,2.63l-1.17,3.16L66.3,27.39Z"/><path class="cls-4" d="M75.3,27.19V25.56a1.8,1.8,0,0,0,1.28-.45,3.41,3.41,0,0,0,.8-1.22c.21-.5.43-1.07.66-1.7l5.68-15.5h1.54l6.2,15.79c.12.32.27.78.46,1.37a6,6,0,0,1,.31,1.54l.94-.06c.31,0,.58,0,.8,0v1.88H86.69V25.62a1.52,1.52,0,0,0,1.2-.37,1.29,1.29,0,0,0,.27-1,4.09,4.09,0,0,0-.3-1.23l-.71-1.94-6.63.11-.62,1.91c-.12.33-.25.7-.4,1.1s-.31.78-.46,1.1l1.13,0,1,0v1.94Zm5.85-7.8h5.37L85,15.2c-.23-.65-.44-1.3-.64-2S84,12,83.84,11.43h-.06c-.11.38-.25.87-.41,1.48S83,14.22,82.69,15Z"/><path class="cls-4" d="M97.57,27.19V25.62a2.8,2.8,0,0,0,1.23-.27,1.38,1.38,0,0,0,.6-.86,6.79,6.79,0,0,0,.17-1.7V11.4c0-.48,0-.93,0-1.37s.06-.78.07-1L98.57,9c-.42,0-.75,0-1,.05V7.2l3.78,0,3.79,0a14.16,14.16,0,0,1,4.41.6,5.39,5.39,0,0,1,2.74,1.87,5.38,5.38,0,0,1,.9,3.33,5.85,5.85,0,0,1-.54,2.29,5.38,5.38,0,0,1-1.63,2,8.36,8.36,0,0,1-3,1.34,3.72,3.72,0,0,1,1,.83,8,8,0,0,1,.93,1.2l1.54,2.37a15.93,15.93,0,0,0,1.06,1.47,3.81,3.81,0,0,0,1,.88,2.61,2.61,0,0,0,1.23.33v1.57h-4.34a6.22,6.22,0,0,1-1.13-1.2c-.35-.48-.72-1-1.1-1.66l-2.06-3.28c-.24-.4-.48-.77-.7-1.13a4.74,4.74,0,0,0-.72-.9l-.83,0-.8,0v3.89c0,.53,0,1,0,1.45a9.6,9.6,0,0,1-.09,1l.76,0,.87,0h.69v1.88Zm7.08-9.88a6.79,6.79,0,0,0,2.64-.49,3.16,3.16,0,0,0,1.57-1.42,5.11,5.11,0,0,0,.53-2.49,4.92,4.92,0,0,0-.38-2.08,3.07,3.07,0,0,0-1-1.23,4,4,0,0,0-1.4-.59,7.63,7.63,0,0,0-1.5-.15,2.43,2.43,0,0,0-1.17.23,1.21,1.21,0,0,0-.58.81,6.09,6.09,0,0,0-.16,1.58v5.74l.71.06C104.13,17.3,104.39,17.31,104.65,17.31Z"/><path class="cls-4" d="M130.18,13.48a7.25,7.25,0,0,0-.83-2.64,4.51,4.51,0,0,0-1.67-1.74,4.83,4.83,0,0,0-2.5-.61,3.38,3.38,0,0,0-2.32.8,2.5,2.5,0,0,0-.93,2,2.6,2.6,0,0,0,.56,1.68,5.06,5.06,0,0,0,1.61,1.3,26,26,0,0,0,2.51,1.21c.72.31,1.46.65,2.2,1a10.83,10.83,0,0,1,2.06,1.33,6.45,6.45,0,0,1,1.52,1.78A4.76,4.76,0,0,1,133,22a5.09,5.09,0,0,1-.87,2.94,5.67,5.67,0,0,1-2.47,2,9.12,9.12,0,0,1-3.77.72,9.78,9.78,0,0,1-2.54-.36,8.78,8.78,0,0,1-2.46-1.07l.09,1.23H119L119,21h1.63a5.47,5.47,0,0,0,1.8,3.67A5.35,5.35,0,0,0,126,25.88a4.37,4.37,0,0,0,1.89-.39,3.26,3.26,0,0,0,1.3-1.06,2.58,2.58,0,0,0,.47-1.52,2.52,2.52,0,0,0-.69-1.83,5.76,5.76,0,0,0-1.74-1.23c-.7-.34-1.43-.67-2.2-1s-1.66-.75-2.42-1.15a10.46,10.46,0,0,1-2-1.4,6.06,6.06,0,0,1-1.37-1.82A5.59,5.59,0,0,1,119,10.3a4.88,4.88,0,0,1,1-1.73,5.48,5.48,0,0,1,2-1.31A7.92,7.92,0,0,1,125,6.74a10.62,10.62,0,0,1,2.5.33,6.8,6.8,0,0,1,2.38,1.07l-.11-1.2h2v6.54Z"/><path class="cls-4" d="M144.6,8.77a2.86,2.86,0,0,0-1.18.26,1.24,1.24,0,0,0-.63.73,4,4,0,0,0-.19,1.41v7.65a12,12,0,0,0,.33,3,6.19,6.19,0,0,0,1,2.12,3.93,3.93,0,0,0,1.55,1.29,5.2,5.2,0,0,0,2.16.43,4.85,4.85,0,0,0,2.9-.72,4.65,4.65,0,0,0,1.78-2.25,9.71,9.71,0,0,0,.6-3.63l0-7.65c0-.48,0-.93,0-1.37s.05-.78.08-1l-1.11,0c-.42,0-.75,0-1,.05V7.2h6.17V8.77a2.78,2.78,0,0,0-1.21.27,1.36,1.36,0,0,0-.62.85,6.77,6.77,0,0,0-.17,1.71l0,7a13.07,13.07,0,0,1-.53,3.95A7.55,7.55,0,0,1,153,25.36a6.67,6.67,0,0,1-2.49,1.72,9,9,0,0,1-3.31.57,10.28,10.28,0,0,1-3.95-.66,5.86,5.86,0,0,1-2.52-1.9,7.74,7.74,0,0,1-1.31-2.94,17,17,0,0,1-.39-3.81V11.8c0-.5,0-1,.05-1.56s0-1,.07-1.24L138,9c-.41,0-.75,0-1,.05V7.2h7.59Z"/><path class="cls-4" d="M176.78,27.53l-9.91-12.88c-.21-.3-.43-.61-.67-.92l-.7-1h0l.06,10c0,.51,0,1,0,1.48s0,.87-.07,1.17l1.11-.06c.42,0,.75,0,1,0v1.88h-6.08V25.62a2.82,2.82,0,0,0,1.15-.24,1.35,1.35,0,0,0,.62-.75,4.14,4.14,0,0,0,.2-1.41l0-11.88c0-.46,0-.89,0-1.31s0-.76.05-1l-1.08,0c-.42,0-.75,0-1,.05V7.2h4.11l9.4,12.14c.4.51.74,1,1,1.37l.78,1.08h0V11.4c0-.48,0-.93,0-1.37s0-.78.06-1l-1.09,0c-.42,0-.76,0-1,.05V7.2h6.12V8.77a2.83,2.83,0,0,0-1.22.27,1.35,1.35,0,0,0-.61.85,6.33,6.33,0,0,0-.17,1.71l0,15.93Z"/></svg>